***************************************************************

[IMG]http://www.hotimg.org/images/67363952943939111394.png[/IMG]

***************************************************************

[IMG]http://www.hotimg.org/images/15087303455275385399.jpg[/IMG]

***************************************************************

FILM TITLE: The Three Musketeers (2011)

***************************************************************

Genre: Action | Adventure | Romance    

Rated PG-13 for sequences of adventure action violence

Release:  30 September 2011 (Sweden)

Director: Paul W.S. Anderson 

Writer: Alex Litvak (screenplay), Andrew Davies (screenplay)

Stars:  Logan Lerman, Matthew Macfadyen and Ray Stevenson 

Country: Germany | France | UK | USA

Language: English 

Plot:
The hot-headed young D'Artagnan along with three former legendary 
but now down on their luck Musketeers must unite and defeat a beautiful 
double agent and her villainous employer from seizing the French throne 
and engulfing Europe in war.

IMDB Rating: 5.9/10 from 21,076 users   Metascore: 35/100
 
http://www.imdb.com/title/tt1509767/

****************************************************************

[URL=http://www.hotimg.org/viewer.php?file=11084200425246182588.png][IMG]http://www.hotimg.org/images/11084200425246182588_thumb.png[/IMG][/URL]
[URL=http://www.hotimg.org/viewer.php?file=62532032215992398141.png][IMG]http://www.hotimg.org/images/62532032215992398141_thumb.png[/IMG][/URL]
[URL=http://www.hotimg.org/viewer.php?file=87035787079830704025.png][IMG]http://www.hotimg.org/images/87035787079830704025_thumb.png[/IMG][/URL]
[URL=http://www.hotimg.org/viewer.php?file=75379770856713968123.png][IMG]http://www.hotimg.org/images/75379770856713968123_thumb.png[/IMG][/URL]

****************************************************************

General
Complete name                    : The Three Musketeers 2011 720p BDRip x264 ac3 (mp4) [GREYSHADOW].mp4
Format                           : MPEG-4
Format profile                   : Base Media
Codec ID                         : isom
File size                        : 3.74 GiB
Duration                         : 1h 50mn
Overall bit rate                 : 4841 Kbps
Encoded date                     : UTC 2012-02-17 13:46:58
Tagged date                      : UTC 2012-02-17 13:46:58

Video
ID                               : 1
Format                           : AVC
Format/Info                      : Advanced Video Codec
Format profile                   : High@L4.1
Format settings, CABAC           : Yes
Format settings, ReFrames        : 12 frames
Codec ID                         : avc1
Codec ID/Info                    : Advanced Video Coding
Duration                         : 1h 50mn
Bit rate                         : 4200 Kbps
Maximum bit rate                 : 16.4 Mbps
Width                            : 1280 pixels
Height                           : 544 pixels
Display aspect ratio             : 2.35:1
Frame rate mode                  : Constant
Frame rate                       : 23.976 fps
Color space                      : YUV
Chroma subsampling               : 4:2:0
Bit depth                        : 8 bits
Scan type                        : Progressive
Bits/(Pixel*Frame)               : 0.252
Stream size                      : 3.24 GiB (87%)
Title                            : AVC MPEG4 Video
Writing library                  : x264 core 120 r2146 bcd41db
Encoded date                     : UTC 2012-02-17 03:56:37
Tagged date                      : UTC 2012-02-17 13:48:56
Color primaries                  : BT.709-5, BT.1361, IEC 61966-2-4, SMPTE RP177
Transfer characteristics         : BT.709-5, BT.1361
Matrix coefficients              : BT.709-5, BT.1361, IEC 61966-2-4 709, SMPTE RP177

Audio
ID                               : 2
Format                           : AC-3
Format/Info                      : Audio Coding 3
Mode extension                   : CM (complete main)
Codec ID                         : ac-3
Duration                         : 1h 50mn
Bit rate mode                    : Constant
Bit rate                         : 640 Kbps
Channel(s)                       : 6 channels
Channel positions                : Front: L C R, Side: L R, LFE
Sampling rate                    : 48.0 KHz
Bit depth                        : 16 bits
Compression mode                 : Lossy
Stream size                      : 506 MiB (13%)
Title                            : AC3 5.1 640 kbps
Language                         : English
Encoded date                     : UTC 2012-02-17 13:48:52
Tagged date                      : UTC 2012-02-17 13:48:56

****************************************************************

Video Source: The Three Musketeers 2011 1080p Blu-ray Ger AVC DTS-HD HR 5.1-CHDBits (34.04GB)

Thanks: ka (chdbits.org) 

****************************************************************

I provide a small sample, so please download this to check your 
compatibility first if you are unsure.

****************************************************************

Hash: AA38686339AB7785F735F82266076E469ED2496C
 
Trackers:
.udp://tracker.1337x.org:80/announce

****************************************************************